<svg width="26" height="32" fill="none" xmlns="http://www.w3.org/2000/svg"><path d="M21.716 17.017c-.037-4.042 3.306-6.009 3.458-6.1-1.892-2.764-4.826-3.141-5.857-3.171-2.464-.26-4.854 1.476-6.109 1.476-1.28 0-3.213-1.451-5.296-1.409-2.68.042-5.189 1.596-6.564 4.01-2.838 4.92-.722 12.151 1.998 16.129 1.36 1.949 2.95 4.122 5.03 4.046 2.036-.083 2.796-1.298 5.253-1.298 2.434 0 3.148 1.298 5.27 1.25 2.184-.035 3.56-1.958 4.872-3.923 1.573-2.232 2.204-4.432 2.229-4.545-.05-.017-4.242-1.62-4.284-6.465zM17.707 5.13c1.095-1.372 1.844-3.237 1.636-5.13-1.584.07-3.566 1.098-4.707 2.438-1.01 1.182-1.912 3.119-1.679 4.94 1.78.133 3.608-.9 4.75-2.249z" fill="#fff"/></svg>