<svg width="20" height="20" fill="none" xmlns="http://www.w3.org/2000/svg"><path d="M10 20c5.523 0 10-4.476 10-10C20 4.479 15.523.002 10 .002c-5.522 0-10 4.477-10 10s4.478 10 10 10z" fill="#CB2027"/><path d="M10.807 13.391c-.756-.059-1.073-.433-1.666-.793-.326 1.71-.724 3.348-1.904 4.204-.364-2.584.534-4.524.952-6.585-.712-1.197.086-3.609 1.586-3.014 1.848.73-1.599 4.454.715 4.919 2.415.485 3.402-4.192 1.903-5.713-2.164-2.196-6.3-.05-5.791 3.094.124.769.918 1.002.317 2.063-1.385-.307-1.798-1.4-1.745-2.856.086-2.384 2.142-4.053 4.205-4.284 2.609-.292 5.057.957 5.395 3.411.38 2.77-1.177 5.77-3.967 5.554z" fill="#F1F2F2"/></svg>