<svg width="20" height="20" fill="none" xmlns="http://www.w3.org/2000/svg"><path d="M10 20c5.523 0 10-4.477 10-10S15.523 0 10 0 0 4.477 0 10s4.477 10 10 10z" fill="#F26798"/><path d="M10 3.649c-3.506 0-6.359 2.849-6.359 6.35 0 3.502 2.853 6.351 6.359 6.351s6.359-2.848 6.359-6.35-2.853-6.351-6.36-6.351zm4.184 2.997a5.333 5.333 0 011.187 3.272 13.27 13.27 0 00-2.485-.24c-.394 0-.81.02-1.225.07a17.663 17.663 0 00-.452-1.009c1.88-.774 2.787-1.85 2.975-2.093zM10 4.643c1.355 0 2.593.503 3.54 1.333-.15.204-.963 1.219-2.775 1.904a29.036 29.036 0 00-1.976-3.1c.39-.09.795-.138 1.21-.138zm-2.308.52a34.696 34.696 0 011.966 3.06 20.29 20.29 0 01-4.856.647H4.75a5.387 5.387 0 012.942-3.706zm-3.064 4.845c0-.044 0-.088.002-.132h.14c.667 0 2.982-.055 5.366-.763.145.283.283.57.411.858-.06.017-.12.034-.179.054-2.685.867-4.16 3.163-4.388 3.538a5.338 5.338 0 01-1.352-3.555zM10 15.373a5.35 5.35 0 01-3.277-1.117c.154-.301 1.268-2.307 4.21-3.33a.058.058 0 01.006-.003 22.355 22.355 0 011.136 4.033 5.342 5.342 0 01-2.075.417zm3.043-.946a23.47 23.47 0 00-1.03-3.767 7.09 7.09 0 011.081-.081c1.123 0 2.001.246 2.206.308a5.375 5.375 0 01-2.257 3.54z" fill="#F1F2F2"/></svg>