<svg width="20" height="20" fill="none" xmlns="http://www.w3.org/2000/svg"><path d="M10 20c5.523 0 10-4.477 10-10S15.523 0 10 0 0 4.477 0 10s4.477 10 10 10z" fill="#4176FA"/><path d="M13.585 8.26c-2.888 0-2.892 2.878-2.892 2.893 0 0-.198 2.881 2.892 2.881 0 0 2.577.147 2.577-2.005h-1.323s.043.81-1.21.81c0 0-1.323.088-1.323-1.309h3.9s.429-3.27-2.621-3.27zm-1.294 2.262s.161-1.158 1.323-1.158c1.166 0 1.148 1.158 1.148 1.158H12.29zm-3.306-.74s1.147-.084 1.147-1.433c0-1.345-.938-2.005-2.13-2.005H4.085v7.532h3.918s2.394.074 2.394-2.225c0 0 .103-1.869-1.411-1.869zm-3.174-2.1h2.191s.532 0 .532.784-.312.898-.667.898H5.81V7.682zm2.082 4.856H5.81v-2.016h2.191s.796-.007.792 1.038c0 .88-.59.971-.901.978zm4.072-5.75v.927h3.108v-.928h-3.108z" fill="#F1F2F2"/></svg>