<svg width="70" height="70" fill="none" xmlns="http://www.w3.org/2000/svg"><path d="M45 42.5a2.5 2.5 0 00-2.5 2.5 7.5 7.5 0 11-15 0 2.5 2.5 0 10-5 0c0 6.903 5.596 12.5 12.5 12.5 6.903 0 12.5-5.597 12.5-12.5a2.5 2.5 0 00-2.5-2.5z" fill="#FB6094"/><path d="M46.768 10.732l-10-10a2.5 2.5 0 00-3.535 0l-10 10a2.5 2.5 0 003.535 3.535L32.5 8.535V42.5a2.5 2.5 0 105 0V8.535l5.733 5.732a2.5 2.5 0 103.535-3.535z" fill="#FB6094"/><path d="M67.5 20H45a2.5 2.5 0 100 5h7.725A15.02 15.02 0 0065 37.275v15.45A15.02 15.02 0 0052.725 65h-35.45A15.02 15.02 0 005 52.725v-15.45A15.02 15.02 0 0017.275 25H25a2.5 2.5 0 100-5H2.5A2.5 2.5 0 000 22.5v45A2.5 2.5 0 002.5 70h65a2.5 2.5 0 002.5-2.5v-45a2.5 2.5 0 00-2.5-2.5zM5 25h7.145A10 10 0 015 32.145V25zm0 40v-7.145A10 10 0 0112.145 65H5zm60 0h-7.145A10 10 0 0165 57.855V65zm0-32.855a10 10 0 01-7.145-7.146H65v7.146z" fill="#FB6094"/></svg>