<svg width="70" height="70" fill="none" xmlns="http://www.w3.org/2000/svg"><path d="M55.371 35.137c-4.523 0-8.203 3.68-8.203 8.203 0 4.524 3.68 8.204 8.203 8.204h11.621c.046 0 .092-.005.137-.007.046.002.09.007.136.007A2.734 2.734 0 0070 48.809V27.344c0-3.64-1.79-6.869-4.533-8.858l-9.302-15.26a2.733 2.733 0 00-3.776-.9l-6.86 4.253-3.094-5.235a2.735 2.735 0 00-3.774-.946L12.32 16.407H8.203A2.738 2.738 0 015.47 13.74a2.738 2.738 0 012.733-2.666h5.059a2.734 2.734 0 100-5.469H8.203c-3.869 0-7.12 2.693-7.98 6.302A2.722 2.722 0 000 12.988v46.076c0 6.03 4.907 10.938 10.938 10.938h48.124c4.716 0 8.886-3.004 10.377-7.475a2.734 2.734 0 10-5.187-1.73 5.462 5.462 0 01-5.19 3.736H10.938a5.475 5.475 0 01-5.47-5.469V21.406a8.164 8.164 0 002.735.47h50.86a5.475 5.475 0 015.468 5.468v7.793h-9.16zm9.16 10.938h-9.16a2.737 2.737 0 01-2.734-2.735 2.738 2.738 0 012.734-2.734h9.16v5.469zM22.85 16.407l16.286-9.898 2.912 4.928a2.663 2.663 0 00.394.666l2.542 4.304H22.85zm28.487 0l-3.025-5.118 4.618-2.864 4.866 7.982h-6.46z" fill="#FF9C43"/></svg>