<svg width="70" height="70" fill="none" xmlns="http://www.w3.org/2000/svg"><path d="M69.78 20.883L63.705 6.644A10.923 10.923 0 0053.644 0H16.356a10.923 10.923 0 00-10.06 6.644L.219 20.883c-.144.34-.219.704-.219 1.073v3.555c0 3.738 2.252 6.958 5.469 8.38v25.172C5.469 65.093 10.375 70 16.406 70h37.188c6.03 0 10.937-4.907 10.937-10.938a2.734 2.734 0 10-5.469 0 5.475 5.475 0 01-5.468 5.47H16.406a5.475 5.475 0 01-5.468-5.47V34.498a9.146 9.146 0 004.648-2.466c.259.255.533.494.82.717V50.45a2.734 2.734 0 002.735 2.735h31.718a2.734 2.734 0 002.735-2.735v-17.7a9.24 9.24 0 00.82-.718 9.146 9.146 0 004.648 2.466V45.39a2.734 2.734 0 105.47 0v-11.5C67.747 32.47 70 29.25 70 25.512v-3.555c0-.369-.075-.734-.22-1.073zm-56.928 4.628a3.696 3.696 0 01-3.692 3.691 3.696 3.696 0 01-3.691-3.691v-.902h7.383v.902zm5.468 0v-.902h7.383v.902a3.696 3.696 0 01-3.691 3.691 3.696 3.696 0 01-3.692-3.691zm29.805 22.204h-26.25V34.668c.046 0 .09.003.137.003a9.131 9.131 0 006.466-2.679A9.266 9.266 0 0035 34.672a9.266 9.266 0 006.522-2.68 9.132 9.132 0 006.466 2.68c.046 0 .091-.004.137-.004v13.047zm-16.953-22.34v-.766h7.656v.765A3.832 3.832 0 0135 29.202a3.832 3.832 0 01-3.828-3.828zm20.508.136a3.696 3.696 0 01-3.692 3.691 3.696 3.696 0 01-3.691-3.691v-.902h7.383v.902zM6.909 19.14l4.417-10.35a5.461 5.461 0 015.03-3.322h37.288a5.461 5.461 0 015.03 3.322l4.417 10.35H6.91zm57.622 6.37a3.696 3.696 0 01-3.691 3.691 3.696 3.696 0 01-3.692-3.691v-.902h7.383v.902z" fill="#30BF67"/></svg>