<svg width="70" height="70" fill="none" xmlns="http://www.w3.org/2000/svg"><path d="M70 34.725v12.168c-.144 3.628-5.325 3.625-5.469 0v-5.402l-8.702 8.703c-.512.512-1.208.8-1.933.8H40.098L21.896 69.198a2.734 2.734 0 11-3.867-3.867l19.003-19.003a2.734 2.734 0 011.934-.801h13.797l8.066-8.066h-5.868c-3.627-.145-3.625-5.326 0-5.469h12.305A2.734 2.734 0 0170 34.725zm-2.734 20.371a2.734 2.734 0 00-2.735 2.734v9.434c.145 3.627 5.326 3.625 5.469 0V57.83a2.734 2.734 0 00-2.734-2.734zm-10.938 0a2.734 2.734 0 00-2.734 2.734v9.434c.145 3.627 5.326 3.625 5.469 0V57.83a2.734 2.734 0 00-2.735-2.734zm-10.937 0a2.734 2.734 0 00-2.734 2.734v9.434c.144 3.627 5.325 3.625 5.469 0V57.83a2.734 2.734 0 00-2.735-2.734zm-10.937 8.34a2.734 2.734 0 00-2.734 2.734v1.094c.144 3.627 5.325 3.625 5.468 0V66.17a2.734 2.734 0 00-2.734-2.734zm-5.605-17.09a2.734 2.734 0 002.734-2.734v-1.68c8.572-3.172 6.502-15.782-2.734-15.956-3.636-.149-3.618-5.3 0-5.45 1.098 0 1.974.582 2.404 1.596a2.734 2.734 0 005.034-2.137c-.915-2.156-2.616-3.733-4.704-4.467v-1.847c-.144-3.628-5.325-3.625-5.469 0v1.855C17.555 18.7 19.596 31.27 28.85 31.444c3.615.15 3.638 5.338 0 5.488-1.064 0-2.118-.694-2.565-1.687a2.734 2.734 0 00-4.988 2.242c.934 2.076 2.722 3.671 4.818 4.429v1.696a2.734 2.734 0 002.735 2.734zm-9.434 9.362a2.735 2.735 0 00.979-5.288C-3.413 40.806 2.981 5.896 28.712 5.468c11.316 0 20.944 8.076 22.892 19.202a2.734 2.734 0 005.387-.943 28.744 28.744 0 00-9.715-16.92C28.843-8.946-.081 4.435.002 28.71c-.138 11.67 7.52 22.761 18.434 26.816.323.123.653.182.979.182z" fill="#8F5CFF"/></svg>