<svg width="24" height="24" fill="none" xmlns="http://www.w3.org/2000/svg"><g clip-path="url(#clip0)"><path d="M18.863 9.657l3.794-1.827a.937.937 0 01.813 1.688l-3.794 1.827a.938.938 0 01-.813-1.688zm-4.752.242a.937.937 0 001.324 0l6.136-6.136a.937.937 0 00-1.325-1.325l-6.135 6.136a.937.937 0 000 1.325zm8.977 11.943l.001-.001zm0 0zm-.178-4.947c-2.42-2.345-4.887-3.544-7.414-1.167l-.005.005-1.267 1.257c-.791-.446-2.378-1.5-4.041-3.164-1.663-1.663-2.718-3.25-3.164-4.04l1.257-1.267a.532.532 0 00.005-.005c2.377-2.53 1.18-4.992-1.167-7.414A3.548 3.548 0 004.677.012a3.548 3.548 0 00-2.51.91C-2.378 5.856.92 13.521 5.681 18.327l.009.01a22.86 22.86 0 002.237 1.946.937.937 0 101.14-1.487 20.965 20.965 0 01-2.07-1.802C3.817 13.812 1.91 9.903 1.893 6.538c-.009-1.746.516-3.203 1.519-4.216l.007-.006a1.685 1.685 0 012.347.084c2.425 2.515 2.25 3.703 1.178 4.802l-1.737 1.75a.937.937 0 00-.19 1.04c1.435 3.186 5.887 7.604 9 9a.937.937 0 001.041-.19l1.75-1.736c1.099-1.072 2.286-1.248 4.801 1.177.659.636.696 1.667.084 2.348l-.006.007c-1.013 1.002-2.469 1.528-4.216 1.518-1.38-.006-2.978-.385-4.622-1.094a.937.937 0 00-.742 1.72c1.9.82 3.702 1.24 5.355 1.248 2.254.014 4.254-.773 5.626-2.148.62-.69.943-1.582.91-2.51a3.548 3.548 0 00-1.088-2.437zm-9.808-11.31a.938.938 0 001.25-.439l1.827-3.793A.937.937 0 0014.491.54l-1.827 3.794a.937.937 0 00.438 1.25z" fill="#FE6C9D"/></g><defs><clipPath id="clip0"><path fill="#fff" d="M0 0h24v24H0z"/></clipPath></defs></svg>