<svg width="209" height="246" fill="none" xmlns="http://www.w3.org/2000/svg"><g filter="url(#filter0_d)"><rect x="30" y="157.929" width="149" height="42.071" rx="5" fill="#9166F0"/></g><rect x="71.194" y="175.459" width="60.477" height="7.012" rx="2" fill="#fff"/><g filter="url(#filter1_d)"><rect x="39.641" y="167.571" width="21.912" height="22.788" rx="3" fill="#fff"/></g><rect x="30" width="149" height="142" rx="5" fill="url(#paint0_linear)"/><path d="M57.1 30.8l3.38-9.98h3.36L58.66 35H55.4l-5.2-14.18h3.48l3.42 9.98zM72.783 35h-3.2V20.82h3.2V35zm16.83-10.7l-2.84.8c-.067-.44-.287-.847-.66-1.22-.374-.373-.94-.56-1.7-.56-.574 0-1.04.153-1.4.46-.36.293-.54.647-.54 1.06 0 .733.466 1.187 1.4 1.36l1.9.36c1.306.24 2.313.753 3.02 1.54.72.773 1.08 1.68 1.08 2.72 0 1.187-.474 2.233-1.42 3.14-.947.893-2.22 1.34-3.82 1.34-1.787 0-3.174-.46-4.16-1.38-.974-.933-1.52-1.987-1.64-3.16l2.9-.7c.066.707.34 1.293.82 1.76.493.453 1.2.68 2.12.68.613 0 1.1-.133 1.46-.4.36-.28.54-.64.54-1.08 0-.36-.134-.66-.4-.9-.267-.253-.64-.427-1.12-.52l-1.94-.36c-1.2-.227-2.147-.713-2.84-1.46-.68-.747-1.02-1.647-1.02-2.7 0-1.307.5-2.393 1.5-3.26s2.193-1.3 3.58-1.3c.84 0 1.586.12 2.24.36.666.227 1.193.533 1.58.92.386.387.686.787.9 1.2.226.413.38.847.46 1.3zM105.168 35l-1.02-2.88h-5.48L97.649 35h-3.32l5.34-14.18h3.66l5.28 14.18h-3.44zm-3.72-10.66l-1.74 4.9h3.44l-1.7-4.9zM53.97 106.15a3.465 3.465 0 01-2.49-1c-.687-.667-1.03-1.567-1.03-2.7 0-.76.173-1.427.52-2 .347-.573.783-.997 1.31-1.27.527-.28 1.09-.42 1.69-.42.8 0 1.473.203 2.02.61.553.4.92.947 1.1 1.64l-.91.32c-.133-.533-.39-.943-.77-1.23-.38-.293-.86-.44-1.44-.44-.693 0-1.287.247-1.78.74-.493.487-.74 1.17-.74 2.05 0 .88.247 1.567.74 2.06.493.493 1.087.74 1.78.74.58 0 1.063-.153 1.45-.46.387-.313.657-.727.81-1.24l.87.32a3.069 3.069 0 01-1.12 1.66c-.547.413-1.217.62-2.01.62zm6.854-5.01v1c-.14-.02-.277-.03-.41-.03-.88 0-1.32.493-1.32 1.48V106h-.94v-4.81h.92v.84c.293-.613.773-.92 1.44-.92.106 0 .21.01.31.03zm1.563 1.96h2.63c-.014-.36-.134-.653-.36-.88-.227-.233-.547-.35-.96-.35-.374 0-.68.123-.92.37-.24.24-.37.527-.39.86zm2.77 1.25l.81.28c-.14.447-.4.813-.78 1.1-.38.28-.84.42-1.38.42-.674 0-1.247-.23-1.72-.69-.467-.467-.7-1.093-.7-1.88 0-.733.226-1.34.68-1.82.453-.48.993-.72 1.62-.72.726 0 1.293.23 1.7.69.406.453.61 1.063.61 1.83 0 .12-.007.22-.02.3h-3.62c.006.427.146.777.42 1.05.28.273.623.41 1.03.41.686 0 1.136-.323 1.35-.97zm2.6-.77c0 .507.123.92.37 1.24.253.32.6.48 1.04.48.42 0 .756-.163 1.01-.49.253-.327.38-.743.38-1.25 0-.5-.124-.903-.37-1.21-.247-.307-.584-.46-1.01-.46-.427 0-.77.157-1.03.47-.26.313-.39.72-.39 1.22zm2.81 1.77v-.08a1.61 1.61 0 01-.58.62c-.254.16-.557.24-.91.24-.687 0-1.24-.24-1.66-.72-.414-.487-.62-1.097-.62-1.83 0-.7.213-1.293.64-1.78.426-.493.973-.74 1.64-.74.393 0 .713.08.96.24.246.153.416.343.51.57v-3.11h.93v6.35c0 .327.016.623.05.89h-.91a3.738 3.738 0 01-.05-.65zm3.438.65h-.93v-4.81h.93V106zm-.95-6.15a.672.672 0 01-.19-.48c0-.187.064-.347.19-.48a.655.655 0 01.48-.2c.187 0 .347.067.48.2.134.127.2.287.2.48a.655.655 0 01-.2.48.672.672 0 01-.48.19.672.672 0 01-.48-.19zm3.81-.18v1.52h1.04v.85h-1.04v2.5c0 .227.05.393.15.5.106.107.28.16.52.16.14 0 .263-.013.37-.04v.8c-.16.06-.374.09-.64.09-.414 0-.74-.12-.98-.36s-.36-.577-.36-1.01v-2.64h-.92v-.85h.26c.246 0 .43-.067.55-.2.126-.14.19-.32.19-.54v-.78h.86zM87.339 106h-.98v-3.15h-3.62V106h-.98v-7.09h.98v3.03h3.62v-3.03h.98V106zm2.693-1.14c.294.3.65.45 1.07.45.42 0 .773-.15 1.06-.45.293-.307.44-.73.44-1.27 0-.533-.147-.95-.44-1.25a1.393 1.393 0 00-1.06-.46c-.42 0-.776.153-1.07.46-.286.3-.43.717-.43 1.25 0 .54.144.963.43 1.27zm-.7-3.09c.467-.487 1.057-.73 1.77-.73.713 0 1.3.243 1.76.73.467.48.7 1.087.7 1.82 0 .74-.23 1.353-.69 1.84-.46.48-1.05.72-1.77.72s-1.31-.24-1.77-.72c-.46-.487-.69-1.1-.69-1.84 0-.733.23-1.34.69-1.82zm6.373 4.23h-.94v-7.24h.94V106zm2.159-2.42c0 .507.123.92.37 1.24.253.32.6.48 1.04.48.42 0 .757-.163 1.01-.49.253-.327.38-.743.38-1.25 0-.5-.123-.903-.37-1.21-.247-.307-.583-.46-1.01-.46-.427 0-.77.157-1.03.47-.26.313-.39.72-.39 1.22zm2.81 1.77v-.08a1.61 1.61 0 01-.58.62 1.67 1.67 0 01-.91.24c-.687 0-1.24-.24-1.66-.72-.413-.487-.62-1.097-.62-1.83 0-.7.213-1.293.64-1.78.427-.493.973-.74 1.64-.74.393 0 .713.08.96.24.247.153.417.343.51.57v-3.11h.93v6.35c0 .327.017.623.05.89h-.91a3.768 3.768 0 01-.05-.65zm3.119-2.25h2.63c-.014-.36-.134-.653-.36-.88-.227-.233-.547-.35-.96-.35-.374 0-.68.123-.92.37-.24.24-.37.527-.39.86zm2.77 1.25l.81.28c-.14.447-.4.813-.78 1.1-.38.28-.84.42-1.38.42-.674 0-1.247-.23-1.72-.69-.467-.467-.7-1.093-.7-1.88 0-.733.226-1.34.68-1.82.453-.48.993-.72 1.62-.72.726 0 1.293.23 1.7.69.406.453.61 1.063.61 1.83 0 .12-.007.22-.02.3h-3.62c.006.427.146.777.42 1.05.28.273.623.41 1.03.41.686 0 1.136-.323 1.35-.97zm4.71-3.21v1c-.14-.02-.277-.03-.41-.03-.88 0-1.32.493-1.32 1.48V106h-.94v-4.81h.92v.84c.293-.613.773-.92 1.44-.92.106 0 .21.01.31.03zm9.432 4.86h-1.02l-3.83-5.78V106h-.98v-7.09h1.31l3.54 5.44v-5.44h.98V106zm1.348-1.29c0-.413.133-.743.4-.99.266-.253.62-.41 1.06-.47l1.3-.19c.246-.033.37-.153.37-.36a.807.807 0 00-.26-.62c-.174-.16-.434-.24-.78-.24-.32 0-.574.09-.76.27-.187.173-.297.407-.33.7l-.9-.21c.046-.46.256-.833.63-1.12.373-.293.82-.44 1.34-.44.68 0 1.183.167 1.51.5.326.327.49.747.49 1.26v2.41c0 .287.02.55.06.79h-.92a3.89 3.89 0 01-.05-.65c-.134.213-.33.4-.59.56-.254.16-.574.24-.96.24-.474 0-.86-.14-1.16-.42-.3-.287-.45-.627-.45-1.02zm1.74.65c.42 0 .756-.113 1.01-.34.253-.227.38-.587.38-1.08v-.22l-1.47.22a.922.922 0 00-.51.23c-.127.12-.19.283-.19.49 0 .187.07.35.21.49a.79.79 0 00.57.21zm4.724.64h-.93v-4.81h.9v.64c.147-.253.353-.447.62-.58.267-.133.547-.2.84-.2.313 0 .6.077.86.23.26.153.453.38.58.68.333-.607.87-.91 1.61-.91.46 0 .85.157 1.17.47.327.313.49.767.49 1.36V106h-.93v-3.02c0-.333-.087-.6-.26-.8-.167-.2-.42-.3-.76-.3a1.02 1.02 0 00-.8.35c-.207.227-.31.513-.31.86V106h-.94v-3.02c0-.333-.087-.6-.26-.8-.167-.2-.42-.3-.76-.3-.333 0-.603.113-.81.34-.207.227-.31.52-.31.88v2.9zm8.254-2.9h2.63c-.013-.36-.133-.653-.36-.88-.226-.233-.546-.35-.96-.35-.373 0-.68.123-.92.37-.24.24-.37.527-.39.86zm2.77 1.25l.81.28c-.14.447-.4.813-.78 1.1-.38.28-.84.42-1.38.42-.673 0-1.246-.23-1.72-.69-.466-.467-.7-1.093-.7-1.88 0-.733.227-1.34.68-1.82.454-.48.994-.72 1.62-.72.727 0 1.294.23 1.7.69.407.453.61 1.063.61 1.83 0 .12-.006.22-.02.3h-3.62c.007.427.147.777.42 1.05.28.273.624.41 1.03.41.687 0 1.137-.323 1.35-.97zM54.78 67.52v.94c-.167.133-.33.277-.49.43-.16.153-.373.4-.64.74-.26.34-.49.7-.69 1.08-.2.38-.39.863-.57 1.45a9.468 9.468 0 00-.35 1.84h-1.01c.04-.513.12-1.01.24-1.49.12-.487.26-.91.42-1.27.16-.36.33-.697.51-1.01.187-.32.367-.587.54-.8.18-.22.34-.407.48-.56.147-.153.263-.267.35-.34l.13-.11h-3.65v-.9h4.73zm2.304 3.47l-.48-.81 1.91-1.76h-3.1v-.9h4.4v.88l-1.85 1.71c.527 0 .99.173 1.39.52.407.347.61.83.61 1.45 0 .573-.21 1.063-.63 1.47-.42.407-.993.61-1.72.61-.713 0-1.287-.197-1.72-.59a2.094 2.094 0 01-.69-1.45l.96-.22c.02.42.163.76.43 1.02.273.253.61.38 1.01.38.427 0 .76-.113 1-.34.247-.233.37-.52.37-.86 0-.393-.13-.693-.39-.9-.26-.207-.57-.31-.93-.31-.193 0-.383.033-.57.1zm6.077-.71c.347-.007.634-.107.86-.3a.95.95 0 00.34-.76.96.96 0 00-.33-.74c-.22-.2-.51-.3-.87-.3s-.65.1-.87.3a.96.96 0 00-.33.74.95.95 0 00.34.76c.227.193.514.293.86.3zm-1 2.71c.247.207.58.31 1 .31.42 0 .75-.103.99-.31a.975.975 0 00.37-.78.985.985 0 00-.37-.79c-.24-.213-.57-.32-.99-.32-.42 0-.753.107-1 .32a.996.996 0 00-.36.79c0 .313.12.573.36.78zm2.72.64c-.42.347-.993.52-1.72.52-.726 0-1.3-.173-1.72-.52-.42-.353-.63-.8-.63-1.34 0-.38.114-.71.34-.99.234-.287.53-.49.89-.61a1.624 1.624 0 01-1.06-1.52c0-.527.207-.957.62-1.29.414-.34.934-.51 1.56-.51.627 0 1.147.17 1.56.51.414.333.62.763.62 1.29 0 .34-.1.65-.3.93-.2.28-.453.477-.76.59.36.113.654.313.88.6.234.287.35.62.35 1 0 .54-.21.987-.63 1.34zm3.326-2.64l-.48-.81 1.91-1.76h-3.1v-.9h4.4v.88l-1.85 1.71c.527 0 .99.173 1.39.52.407.347.61.83.61 1.45 0 .573-.21 1.063-.63 1.47-.42.407-.993.61-1.72.61-.713 0-1.287-.197-1.72-.59a2.094 2.094 0 01-.69-1.45l.96-.22c.02.42.163.76.43 1.02.273.253.61.38 1.01.38.427 0 .76-.113 1-.34.247-.233.37-.52.37-.86 0-.393-.13-.693-.39-.9-.26-.207-.57-.31-.93-.31-.193 0-.383.033-.57.1zm8.577-.71c.347-.007.634-.107.86-.3a.95.95 0 00.34-.76.96.96 0 00-.33-.74c-.22-.2-.51-.3-.87-.3s-.65.1-.87.3a.96.96 0 00-.33.74.95.95 0 00.34.76c.227.193.514.293.86.3zm-1 2.71c.247.207.58.31 1 .31.42 0 .75-.103.99-.31a.976.976 0 00.37-.78.986.986 0 00-.37-.79c-.24-.213-.57-.32-.99-.32-.42 0-.753.107-1 .32a.996.996 0 00-.36.79c0 .313.12.573.36.78zm2.72.64c-.42.347-.993.52-1.72.52-.726 0-1.3-.173-1.72-.52-.42-.353-.63-.8-.63-1.34 0-.38.114-.71.34-.99.234-.287.53-.49.89-.61a1.623 1.623 0 01-1.06-1.52c0-.527.207-.957.62-1.29.414-.34.934-.51 1.56-.51.627 0 1.147.17 1.56.51.414.333.62.763.62 1.29 0 .34-.1.65-.3.93-.2.28-.453.477-.76.59.36.113.654.313.88.6.234.287.35.62.35 1 0 .54-.21.987-.63 1.34zm2.486-3.78l-.98-.12a2.522 2.522 0 01-.01-.26c0-.58.203-1.073.61-1.48.407-.413.95-.62 1.63-.62.673 0 1.207.193 1.6.58.393.38.59.85.59 1.41 0 .82-.407 1.487-1.22 2l-1.28.82c-.46.293-.723.597-.79.91h3.33V74h-4.54c.013-.547.137-1.027.37-1.44.24-.413.63-.793 1.17-1.14l1.08-.7c.593-.38.89-.83.89-1.35 0-.32-.107-.59-.32-.81-.213-.22-.513-.33-.9-.33-.407 0-.717.123-.93.37-.213.247-.32.567-.32.96 0 .06.007.157.02.29zm6.133 1.14l-.48-.81 1.91-1.76h-3.1v-.9h4.4v.88l-1.85 1.71c.527 0 .99.173 1.39.52.407.347.61.83.61 1.45 0 .573-.21 1.063-.63 1.47-.42.407-.993.61-1.72.61-.713 0-1.287-.197-1.72-.59a2.094 2.094 0 01-.69-1.45l.96-.22c.02.42.163.76.43 1.02.273.253.61.38 1.01.38.427 0 .76-.113 1-.34.247-.233.37-.52.37-.86 0-.393-.13-.693-.39-.9-.26-.207-.57-.31-.93-.31-.193 0-.383.033-.57.1zm3.847 2.78l.32-.81c.34.207.734.31 1.18.31.74 0 1.294-.21 1.66-.63.374-.427.57-.983.59-1.67-.126.233-.336.43-.63.59-.286.16-.636.24-1.05.24-.6 0-1.123-.193-1.57-.58-.446-.393-.67-.93-.67-1.61 0-.653.234-1.19.7-1.61a2.461 2.461 0 011.69-.63c.694 0 1.287.253 1.78.76.494.507.74 1.247.74 2.22 0 1.213-.273 2.15-.82 2.81-.54.66-1.346.99-2.42.99-.253 0-.526-.037-.82-.11-.293-.073-.52-.163-.68-.27zm3.62-4.18c0-.4-.14-.727-.42-.98a1.415 1.415 0 00-.98-.38c-.38 0-.71.127-.99.38-.273.247-.41.573-.41.98 0 .42.137.753.41 1 .274.247.604.37.99.37.38 0 .707-.123.98-.37.28-.253.42-.587.42-1zm6.711-2.68v1.34l1.23-.42.23.72-1.24.41.82 1.05-.61.46-.83-1.09-.78 1.08-.61-.46.79-1.04-1.24-.41.23-.72 1.22.43v-1.35h.79zm4.404 0v1.34l1.23-.42.23.72-1.24.41.82 1.05-.61.46-.83-1.09-.78 1.08-.61-.46.79-1.04-1.24-.41.23-.72 1.22.43v-1.35h.79zm4.405 0v1.34l1.23-.42.23.72-1.24.41.82 1.05-.61.46-.83-1.09-.78 1.08-.61-.46.79-1.04-1.24-.41.23-.72 1.22.43v-1.35h.79zm4.404 0v1.34l1.23-.42.23.72-1.24.41.82 1.05-.61.46-.83-1.09-.78 1.08-.61-.46.79-1.04-1.24-.41.23-.72 1.22.43v-1.35h.79zm6.904 0v1.34l1.23-.42.23.72-1.24.41.82 1.05-.61.46-.83-1.09-.78 1.08-.61-.46.79-1.04-1.24-.41.23-.72 1.22.43v-1.35h.79zm4.404 0v1.34l1.23-.42.23.72-1.24.41.82 1.05-.61.46-.83-1.09-.78 1.08-.61-.46.79-1.04-1.24-.41.23-.72 1.22.43v-1.35h.79zm4.405 0v1.34l1.23-.42.23.72-1.24.41.82 1.05-.61.46-.83-1.09-.78 1.08-.61-.46.79-1.04-1.24-.41.23-.72 1.22.43v-1.35h.79zm4.404 0v1.34l1.23-.42.23.72-1.24.41.82 1.05-.61.46-.83-1.09-.78 1.08-.61-.46.79-1.04-1.24-.41.23-.72 1.22.43v-1.35h.79zm-76.819 48.53l-1.736.532c-.065-.355-.243-.677-.532-.966-.29-.289-.714-.434-1.274-.434-.457 0-.83.126-1.12.378-.29.243-.434.537-.434.882 0 .607.36.98 1.078 1.12l1.386.266c.877.168 1.559.518 2.044 1.05.485.532.728 1.157.728 1.876 0 .821-.327 1.54-.98 2.156-.644.607-1.512.91-2.604.91-.625 0-1.19-.093-1.694-.28-.504-.187-.91-.434-1.218-.742a4.166 4.166 0 01-.728-.994 3.308 3.308 0 01-.308-1.092l1.792-.476c.047.532.252.975.616 1.33.373.355.891.532 1.554.532.504 0 .896-.112 1.176-.336a1.06 1.06 0 00.434-.882.99.99 0 00-.322-.742c-.205-.215-.5-.359-.882-.434l-1.386-.28c-.803-.168-1.437-.499-1.904-.994-.467-.495-.7-1.111-.7-1.848 0-.877.336-1.615 1.008-2.212.681-.597 1.498-.896 2.45-.896.57 0 1.078.079 1.526.238.448.159.807.373 1.078.644.27.261.48.532.63.812.15.28.257.574.322.882zm3.425 3.514V123h-1.862v-10.136h1.862v3.822c.42-.504 1.04-.756 1.862-.756.84 0 1.474.257 1.904.77.439.504.658 1.157.658 1.96V123h-1.862v-4.018c0-.411-.108-.742-.322-.994-.205-.252-.523-.378-.952-.378-.383 0-.69.126-.924.378-.224.252-.346.574-.364.966zm5.894 2.17c0-.588.191-1.059.574-1.414.382-.355.877-.579 1.484-.672l1.694-.252c.345-.047.518-.21.518-.49a.796.796 0 00-.308-.644c-.196-.168-.481-.252-.854-.252-.392 0-.705.107-.938.322-.224.215-.35.481-.378.798l-1.652-.35c.065-.597.359-1.125.882-1.582.522-.457 1.213-.686 2.072-.686 1.026 0 1.782.247 2.268.742.485.485.728 1.111.728 1.876v3.388c0 .411.028.775.084 1.092h-1.708a3.884 3.884 0 01-.07-.826c-.439.681-1.116 1.022-2.03 1.022-.71 0-1.284-.205-1.722-.616-.43-.411-.644-.896-.644-1.456zm2.758.686c.438 0 .798-.121 1.078-.364.289-.252.434-.663.434-1.232v-.308l-1.554.238c-.57.084-.854.373-.854.868 0 .224.079.415.238.574.158.149.378.224.658.224zm7.07 1.19h-1.862v-6.888h1.779v.84c.177-.317.457-.569.84-.756a2.65 2.65 0 011.175-.28c1 0 1.68.383 2.044 1.148.495-.765 1.223-1.148 2.184-1.148.7 0 1.288.219 1.764.658.486.439.729 1.092.729 1.96V123h-1.806v-4.088c0-.392-.103-.705-.308-.938-.197-.243-.5-.364-.91-.364-.383 0-.691.131-.924.392-.234.261-.35.583-.35.966V123h-1.848v-4.088c0-.392-.103-.705-.308-.938-.206-.243-.51-.364-.91-.364-.392 0-.705.131-.939.392-.233.252-.35.574-.35.966V123zm12.4 0h-1.861v-6.888h1.862V123zm-2.085-9.142c0-.317.112-.588.336-.812.224-.233.495-.35.812-.35.317 0 .588.112.812.336.224.224.336.499.336.826 0 .308-.112.574-.336.798a1.106 1.106 0 01-.812.336c-.317 0-.588-.112-.812-.336a1.09 1.09 0 01-.336-.798zM93.215 123h-1.862v-6.888h1.778v.84c.178-.317.458-.569.84-.756a2.65 2.65 0 011.176-.28c.999 0 1.68.383 2.044 1.148.495-.765 1.223-1.148 2.184-1.148.7 0 1.288.219 1.764.658.486.439.728 1.092.728 1.96V123h-1.806v-4.088c0-.392-.102-.705-.308-.938-.196-.243-.499-.364-.91-.364-.382 0-.69.131-.924.392-.233.261-.35.583-.35.966V123h-1.848v-4.088c0-.392-.102-.705-.308-.938-.205-.243-.508-.364-.91-.364-.392 0-.704.131-.938.392-.233.252-.35.574-.35.966V123zm22.342 0h-1.946v-4.116h-4.326V123h-1.932v-9.926h1.932v3.99h4.326v-3.99h1.946V123zm3.935-2.002c.346.345.761.518 1.246.518.486 0 .896-.173 1.232-.518.346-.345.518-.826.518-1.442s-.172-1.097-.518-1.442a1.653 1.653 0 00-1.232-.518c-.485 0-.9.173-1.246.518-.336.345-.504.826-.504 1.442s.168 1.097.504 1.442zm-1.344-4.06c.691-.691 1.554-1.036 2.59-1.036 1.036 0 1.895.345 2.576 1.036.691.691 1.036 1.563 1.036 2.618s-.345 1.927-1.036 2.618c-.681.691-1.54 1.036-2.576 1.036s-1.899-.345-2.59-1.036c-.681-.691-1.022-1.563-1.022-2.618s.341-1.927 1.022-2.618zm7.084 4.144l1.596-.35c.019.299.136.551.35.756.224.196.528.294.91.294.29 0 .514-.065.672-.196a.61.61 0 00.238-.49c0-.345-.247-.569-.742-.672l-.91-.21c-.644-.14-1.129-.392-1.456-.756a1.917 1.917 0 01-.476-1.302c0-.625.243-1.157.728-1.596.495-.439 1.111-.658 1.848-.658.467 0 .878.07 1.232.21.355.131.63.303.826.518.196.205.346.415.448.63.103.215.168.425.196.63l-1.554.35a1.136 1.136 0 00-.336-.644c-.177-.187-.443-.28-.798-.28-.242 0-.452.065-.63.196a.598.598 0 00-.252.49c0 .336.21.541.63.616l.98.21c.663.14 1.167.397 1.512.77.355.373.532.821.532 1.344 0 .616-.233 1.148-.7 1.596-.466.448-1.124.672-1.974.672-.485 0-.919-.07-1.302-.21-.382-.149-.681-.336-.896-.56a3.264 3.264 0 01-.476-.686 2.483 2.483 0 01-.196-.672zm6.453 0l1.596-.35c.019.299.136.551.35.756.224.196.528.294.91.294.29 0 .514-.065.672-.196a.61.61 0 00.238-.49c0-.345-.247-.569-.742-.672l-.91-.21c-.644-.14-1.129-.392-1.456-.756a1.917 1.917 0 01-.476-1.302c0-.625.243-1.157.728-1.596.495-.439 1.111-.658 1.848-.658.467 0 .878.07 1.232.21.355.131.63.303.826.518.196.205.346.415.448.63.103.215.168.425.196.63l-1.554.35a1.136 1.136 0 00-.336-.644c-.177-.187-.443-.28-.798-.28-.242 0-.452.065-.63.196a.598.598 0 00-.252.49c0 .336.21.541.63.616l.98.21c.663.14 1.167.397 1.512.77.355.373.532.821.532 1.344 0 .616-.233 1.148-.7 1.596-.466.448-1.124.672-1.974.672-.485 0-.919-.07-1.302-.21-.382-.149-.681-.336-.896-.56a3.264 3.264 0 01-.476-.686 2.483 2.483 0 01-.196-.672zm6.567.042c0-.588.191-1.059.574-1.414.382-.355.877-.579 1.484-.672l1.694-.252c.345-.047.518-.21.518-.49a.797.797 0 00-.308-.644c-.196-.168-.481-.252-.854-.252-.392 0-.705.107-.938.322-.224.215-.35.481-.378.798l-1.652-.35c.065-.597.359-1.125.882-1.582.522-.457 1.213-.686 2.072-.686 1.026 0 1.782.247 2.268.742.485.485.728 1.111.728 1.876v3.388c0 .411.028.775.084 1.092h-1.708a3.858 3.858 0 01-.07-.826c-.439.681-1.116 1.022-2.03 1.022-.71 0-1.284-.205-1.722-.616-.43-.411-.644-.896-.644-1.456zm2.758.686c.438 0 .798-.121 1.078-.364.289-.252.434-.663.434-1.232v-.308l-1.554.238c-.57.084-.854.373-.854.868 0 .224.079.415.238.574.158.149.378.224.658.224zm7.071 1.19h-1.862v-6.888h1.862V123zm-2.086-9.142c0-.317.112-.588.336-.812.224-.233.494-.35.812-.35.317 0 .588.112.812.336.224.224.336.499.336.826 0 .308-.112.574-.336.798a1.107 1.107 0 01-.812.336c-.318 0-.588-.112-.812-.336a1.09 1.09 0 01-.336-.798zm5.941 5.18V123h-1.862v-6.888h1.806v.854c.196-.336.476-.593.84-.77a2.594 2.594 0 011.148-.266c.812 0 1.428.257 1.848.77.429.504.644 1.157.644 1.96V123h-1.862v-4.018c0-.411-.107-.742-.322-.994-.205-.252-.523-.378-.952-.378-.392 0-.705.135-.938.406-.233.271-.35.611-.35 1.022z" fill="#fff"/><path d="M57.08 174.819a.436.436 0 00-.33-.35l-5.627-1.453a.485.485 0 00-.246 0l-5.626 1.453a.436.436 0 00-.331.35c-.033.218-.777 5.367 1.133 7.928 1.907 2.559 4.72 3.214 4.84 3.241a.486.486 0 00.214 0c.12-.027 2.933-.682 4.84-3.241 1.91-2.561 1.166-7.71 1.133-7.928zm-2.451 3.006l-3.838 3.564a.475.475 0 01-.324.125.475.475 0 01-.323-.125l-2.373-2.203a.411.411 0 01-.135-.301.41.41 0 01.134-.3l.472-.438a.484.484 0 01.647 0l1.578 1.466 3.043-2.826a.474.474 0 01.324-.124c.121 0 .238.044.323.124l.472.437a.404.404 0 010 .601z" fill="#FE6C9D"/><defs><filter id="filter0_d" x="0" y="135.929" width="209" height="102.071" filterUnits="userSpaceOnUse" color-interpolation-filters="sRGB"><feFlood flood-opacity="0" result="BackgroundImageFix"/><feColorMatrix in="SourceAlpha" values="0 0 0 0 0 0 0 0 0 0 0 0 0 0 0 0 0 0 127 0" result="hardAlpha"/><feOffset dy="8"/><feGaussianBlur stdDeviation="15"/><feColorMatrix values="0 0 0 0 0.572549 0 0 0 0 0.407843 0 0 0 0 0.937255 0 0 0 0.35 0"/><feBlend in2="BackgroundImageFix" result="effect1_dropShadow"/><feBlend in="SourceGraphic" in2="effect1_dropShadow" result="shape"/></filter><filter id="filter1_d" x="4.641" y="152.571" width="91.912" height="92.788" filterUnits="userSpaceOnUse" color-interpolation-filters="sRGB"><feFlood flood-opacity="0" result="BackgroundImageFix"/><feColorMatrix in="SourceAlpha" values="0 0 0 0 0 0 0 0 0 0 0 0 0 0 0 0 0 0 127 0" result="hardAlpha"/><feOffset dy="20"/><feGaussianBlur stdDeviation="17.5"/><feColorMatrix values="0 0 0 0 0.743472 0 0 0 0 0.800425 0 0 0 0 0.841667 0 0 0 0.25 0"/><feBlend in2="BackgroundImageFix" result="effect1_dropShadow"/><feBlend in="SourceGraphic" in2="effect1_dropShadow" result="shape"/></filter><linearGradient id="paint0_linear" x1="30" y1="0" x2="138.64" y2="168.086" gradientUnits="userSpaceOnUse"><stop offset=".217" stop-color="#FF98F6"/><stop offset=".905" stop-color="#77C3FF"/></linearGradient></defs></svg>