<svg width="60" height="60" fill="none" xmlns="http://www.w3.org/2000/svg"><circle cx="30" cy="30" r="30" fill="#FE6C9D"/><g clip-path="url(#clip0)"><path d="M28.528 24.566c1.453.557 3.364.864 5.381.864 2.017 0 3.928-.307 5.381-.864 2.358-.904 2.71-2.168 2.71-2.84 0-.673-.352-1.936-2.71-2.84-1.453-.558-3.364-.865-5.381-.865-2.017 0-3.928.307-5.381.864-2.358.905-2.71 2.168-2.71 2.84 0 .673.352 1.936 2.71 2.84zm.698-3.86c1.218-.467 2.925-.735 4.683-.735s3.465.268 4.683.735c1.102.422 1.458.87 1.458 1.02 0 .15-.356.597-1.458 1.02-1.218.466-2.925.734-4.683.734s-3.465-.268-4.683-.734c-1.102-.423-1.458-.87-1.458-1.02 0-.15.356-.598 1.458-1.02zm12.645 19.583a.975.975 0 01-.493 1.287c-2.03.907-4.685 1.4-7.506 1.4l-.313-.001a.975.975 0 01.026-1.95c2.622.034 5.172-.414 6.998-1.23a.975.975 0 011.288.494zm0-4.338a.975.975 0 01-.493 1.287c-1.478.66-3.322 1.11-5.331 1.3a.975.975 0 01-.183-1.941c1.8-.17 3.432-.564 4.72-1.14a.975.975 0 011.287.494zm0-4.387a.975.975 0 01-.493 1.288c-1.398.624-3.134 1.062-5.02 1.267a.975.975 0 01-.21-1.938c1.686-.184 3.22-.567 4.435-1.11a.975.975 0 011.288.493zm-.493-3.148c-1.782.796-4.126 1.287-6.599 1.383h-.038a.975.975 0 01-.038-1.948c2.231-.087 4.32-.518 5.88-1.215a.975.975 0 01.795 1.78zm-16.092-2.011c-4.569 0-8.286 3.717-8.286 8.286 0 4.569 3.717 8.286 8.286 8.286 4.569 0 8.286-3.717 8.286-8.286 0-4.569-3.717-8.286-8.286-8.286zm0 14.622a6.343 6.343 0 01-6.336-6.336 6.344 6.344 0 016.336-6.337 6.344 6.344 0 016.336 6.337 6.343 6.343 0 01-6.336 6.336zm2.73-4.874c0 1.047-.67 1.942-1.609 2.286v.151a.975.975 0 01-1.95 0v-.127a7.603 7.603 0 01-1.286-.38.975.975 0 01.72-1.812c.764.303 1.46.37 1.663.37.277 0 .512-.224.512-.488s-.313-.487-.682-.487c-1.584 0-2.779-1.048-2.779-2.437 0-1.143.79-2.103 1.852-2.366v-.071a.975.975 0 111.95 0v.179c.25.066.528.155.84.277a.975.975 0 11-.706 1.817c-.731-.285-1.152-.324-1.499-.324a.488.488 0 00-.487.488c0 .278.356.487.829.487.685 0 1.332.24 1.822.674.514.456.81 1.098.81 1.763z" fill="#fff"/></g><defs><clipPath id="clip0"><path fill="#fff" transform="translate(17 18)" d="M0 0h25v25H0z"/></clipPath></defs></svg>